<mxfile host="app.diagrams.net" modified="2023-09-25T03:48:20.961Z" agent="Mozilla/5.0 (Windows NT 10.0; Win64; x64) AppleWebKit/537.36 (KHTML, like Gecko) Chrome/116.0.0.0 Safari/537.36" etag="AztyOf-baPFFtebZ-IID" version="21.7.5" type="device" pages="2">
  <diagram name="Assembler" id="5Cqo7wR6bdedvOOV6QNz">
    <mxGraphModel dx="1434" dy="790" grid="1" gridSize="10" guides="1" tooltips="1" connect="1" arrows="1" fold="1" page="1" pageScale="1" pageWidth="827" pageHeight="1169" math="0" shadow="0">
      <root>
        <mxCell id="0" />
        <mxCell id="1" parent="0" />
        <mxCell id="tvakT9BRgmzE_acjiOMg-1" value="&lt;div&gt;Assembler&lt;/div&gt;" style="rounded=1;whiteSpace=wrap;html=1;" parent="1" vertex="1">
          <mxGeometry x="60" y="500" width="120" height="60" as="geometry" />
        </mxCell>
        <mxCell id="tvakT9BRgmzE_acjiOMg-4" style="edgeStyle=orthogonalEdgeStyle;rounded=0;orthogonalLoop=1;jettySize=auto;html=1;exitX=0;exitY=0;exitDx=80;exitDy=65;exitPerimeter=0;" parent="1" source="tvakT9BRgmzE_acjiOMg-2" target="tvakT9BRgmzE_acjiOMg-3" edge="1">
          <mxGeometry relative="1" as="geometry" />
        </mxCell>
        <mxCell id="tvakT9BRgmzE_acjiOMg-6" style="edgeStyle=orthogonalEdgeStyle;rounded=0;orthogonalLoop=1;jettySize=auto;html=1;exitX=0;exitY=0;exitDx=80;exitDy=65;exitPerimeter=0;entryX=0;entryY=0.5;entryDx=0;entryDy=0;" parent="1" source="tvakT9BRgmzE_acjiOMg-2" target="tvakT9BRgmzE_acjiOMg-5" edge="1">
          <mxGeometry relative="1" as="geometry" />
        </mxCell>
        <mxCell id="tvakT9BRgmzE_acjiOMg-9" style="edgeStyle=orthogonalEdgeStyle;rounded=0;orthogonalLoop=1;jettySize=auto;html=1;exitX=0;exitY=0;exitDx=80;exitDy=65;exitPerimeter=0;entryX=0;entryY=0.5;entryDx=0;entryDy=0;" parent="1" source="tvakT9BRgmzE_acjiOMg-2" target="tvakT9BRgmzE_acjiOMg-7" edge="1">
          <mxGeometry relative="1" as="geometry" />
        </mxCell>
        <mxCell id="tvakT9BRgmzE_acjiOMg-12" style="edgeStyle=orthogonalEdgeStyle;rounded=0;orthogonalLoop=1;jettySize=auto;html=1;exitX=0;exitY=0;exitDx=80;exitDy=65;exitPerimeter=0;entryX=0;entryY=0.5;entryDx=0;entryDy=0;" parent="1" source="tvakT9BRgmzE_acjiOMg-2" target="tvakT9BRgmzE_acjiOMg-11" edge="1">
          <mxGeometry relative="1" as="geometry" />
        </mxCell>
        <mxCell id="tvakT9BRgmzE_acjiOMg-16" style="edgeStyle=orthogonalEdgeStyle;rounded=0;orthogonalLoop=1;jettySize=auto;html=1;exitX=0;exitY=0;exitDx=80;exitDy=65;exitPerimeter=0;entryX=0;entryY=0.5;entryDx=0;entryDy=0;" parent="1" source="tvakT9BRgmzE_acjiOMg-2" target="tvakT9BRgmzE_acjiOMg-15" edge="1">
          <mxGeometry relative="1" as="geometry" />
        </mxCell>
        <mxCell id="tvakT9BRgmzE_acjiOMg-2" value="Program.asm" style="shape=note;whiteSpace=wrap;html=1;backgroundOutline=1;darkOpacity=0.05;" parent="1" vertex="1">
          <mxGeometry x="74" y="160" width="80" height="100" as="geometry" />
        </mxCell>
        <mxCell id="tvakT9BRgmzE_acjiOMg-29" style="edgeStyle=orthogonalEdgeStyle;rounded=0;orthogonalLoop=1;jettySize=auto;html=1;entryX=0.976;entryY=0.136;entryDx=0;entryDy=0;entryPerimeter=0;" parent="1" source="tvakT9BRgmzE_acjiOMg-3" target="tvakT9BRgmzE_acjiOMg-27" edge="1">
          <mxGeometry relative="1" as="geometry">
            <mxPoint x="430" y="560" as="targetPoint" />
            <Array as="points">
              <mxPoint x="440" y="190" />
              <mxPoint x="440" y="560" />
            </Array>
          </mxGeometry>
        </mxCell>
        <mxCell id="tvakT9BRgmzE_acjiOMg-31" value="PTR To" style="edgeLabel;html=1;align=center;verticalAlign=middle;resizable=0;points=[];" parent="tvakT9BRgmzE_acjiOMg-29" vertex="1" connectable="0">
          <mxGeometry x="0.4162" y="2" relative="1" as="geometry">
            <mxPoint as="offset" />
          </mxGeometry>
        </mxCell>
        <mxCell id="tvakT9BRgmzE_acjiOMg-3" value="Macro obj" style="rounded=1;whiteSpace=wrap;html=1;" parent="1" vertex="1">
          <mxGeometry x="274" y="150" width="120" height="60" as="geometry" />
        </mxCell>
        <mxCell id="tvakT9BRgmzE_acjiOMg-5" value="Command" style="rounded=1;whiteSpace=wrap;html=1;" parent="1" vertex="1">
          <mxGeometry x="274" y="230" width="120" height="60" as="geometry" />
        </mxCell>
        <mxCell id="tvakT9BRgmzE_acjiOMg-7" value="Command" style="rounded=1;whiteSpace=wrap;html=1;" parent="1" vertex="1">
          <mxGeometry x="274" y="310" width="120" height="60" as="geometry" />
        </mxCell>
        <mxCell id="tvakT9BRgmzE_acjiOMg-33" style="edgeStyle=orthogonalEdgeStyle;rounded=0;orthogonalLoop=1;jettySize=auto;html=1;" parent="1" source="tvakT9BRgmzE_acjiOMg-10" edge="1">
          <mxGeometry relative="1" as="geometry">
            <mxPoint x="560" y="345" as="targetPoint" />
            <Array as="points">
              <mxPoint x="530" y="345" />
              <mxPoint x="530" y="345" />
            </Array>
          </mxGeometry>
        </mxCell>
        <mxCell id="tvakT9BRgmzE_acjiOMg-34" value="Convert" style="edgeLabel;html=1;align=center;verticalAlign=middle;resizable=0;points=[];" parent="tvakT9BRgmzE_acjiOMg-33" vertex="1" connectable="0">
          <mxGeometry x="0.1918" y="3" relative="1" as="geometry">
            <mxPoint as="offset" />
          </mxGeometry>
        </mxCell>
        <mxCell id="tvakT9BRgmzE_acjiOMg-10" value="" style="rounded=0;whiteSpace=wrap;html=1;fillColor=none;" parent="1" vertex="1">
          <mxGeometry x="249" y="220" width="165" height="250" as="geometry" />
        </mxCell>
        <mxCell id="tvakT9BRgmzE_acjiOMg-41" style="edgeStyle=orthogonalEdgeStyle;rounded=0;orthogonalLoop=1;jettySize=auto;html=1;entryX=-0.037;entryY=0.86;entryDx=0;entryDy=0;entryPerimeter=0;" parent="1" source="tvakT9BRgmzE_acjiOMg-11" target="tvakT9BRgmzE_acjiOMg-35" edge="1">
          <mxGeometry relative="1" as="geometry">
            <mxPoint x="600" y="420" as="targetPoint" />
          </mxGeometry>
        </mxCell>
        <mxCell id="tvakT9BRgmzE_acjiOMg-42" value="Convert" style="edgeLabel;html=1;align=center;verticalAlign=middle;resizable=0;points=[];" parent="tvakT9BRgmzE_acjiOMg-41" vertex="1" connectable="0">
          <mxGeometry x="0.3364" y="-4" relative="1" as="geometry">
            <mxPoint as="offset" />
          </mxGeometry>
        </mxCell>
        <mxCell id="tvakT9BRgmzE_acjiOMg-11" value="Macro pointer" style="rounded=1;whiteSpace=wrap;html=1;" parent="1" vertex="1">
          <mxGeometry x="274" y="390" width="120" height="60" as="geometry" />
        </mxCell>
        <mxCell id="tvakT9BRgmzE_acjiOMg-14" value="Список объектов команд" style="text;html=1;strokeColor=none;fillColor=none;align=center;verticalAlign=middle;whiteSpace=wrap;rounded=0;" parent="1" vertex="1">
          <mxGeometry x="134" y="310" width="80" height="120" as="geometry" />
        </mxCell>
        <mxCell id="tvakT9BRgmzE_acjiOMg-15" value="Mark obj" style="rounded=1;whiteSpace=wrap;html=1;" parent="1" vertex="1">
          <mxGeometry x="274" y="70" width="120" height="60" as="geometry" />
        </mxCell>
        <mxCell id="tvakT9BRgmzE_acjiOMg-17" value="" style="rounded=1;whiteSpace=wrap;html=1;" parent="1" vertex="1">
          <mxGeometry x="510" y="30" width="270" height="80" as="geometry" />
        </mxCell>
        <mxCell id="tvakT9BRgmzE_acjiOMg-18" value="Command" style="text;html=1;strokeColor=none;fillColor=none;align=center;verticalAlign=middle;whiteSpace=wrap;rounded=0;" parent="1" vertex="1">
          <mxGeometry x="520" y="55" width="60" height="30" as="geometry" />
        </mxCell>
        <mxCell id="tvakT9BRgmzE_acjiOMg-19" value="" style="rounded=1;whiteSpace=wrap;html=1;" parent="1" vertex="1">
          <mxGeometry x="590" y="30" width="190" height="80" as="geometry" />
        </mxCell>
        <mxCell id="tvakT9BRgmzE_acjiOMg-20" value="Args" style="text;html=1;strokeColor=none;fillColor=none;align=center;verticalAlign=middle;whiteSpace=wrap;rounded=0;" parent="1" vertex="1">
          <mxGeometry x="580" y="30" width="60" height="30" as="geometry" />
        </mxCell>
        <mxCell id="tvakT9BRgmzE_acjiOMg-22" value="Data" style="rounded=1;whiteSpace=wrap;html=1;" parent="1" vertex="1">
          <mxGeometry x="600" y="60" width="70" height="30" as="geometry" />
        </mxCell>
        <mxCell id="tvakT9BRgmzE_acjiOMg-43" style="edgeStyle=orthogonalEdgeStyle;rounded=0;orthogonalLoop=1;jettySize=auto;html=1;exitX=0.5;exitY=1;exitDx=0;exitDy=0;" parent="1" source="tvakT9BRgmzE_acjiOMg-23" edge="1">
          <mxGeometry relative="1" as="geometry">
            <mxPoint x="725" y="170" as="targetPoint" />
          </mxGeometry>
        </mxCell>
        <mxCell id="tvakT9BRgmzE_acjiOMg-45" value="Translate" style="edgeLabel;html=1;align=center;verticalAlign=middle;resizable=0;points=[];" parent="tvakT9BRgmzE_acjiOMg-43" vertex="1" connectable="0">
          <mxGeometry x="0.1551" y="1" relative="1" as="geometry">
            <mxPoint as="offset" />
          </mxGeometry>
        </mxCell>
        <mxCell id="tvakT9BRgmzE_acjiOMg-23" value="Mark obj" style="rounded=1;whiteSpace=wrap;html=1;" parent="1" vertex="1">
          <mxGeometry x="690" y="60" width="70" height="30" as="geometry" />
        </mxCell>
        <mxCell id="tvakT9BRgmzE_acjiOMg-24" value="" style="endArrow=none;dashed=1;html=1;dashPattern=1 3;strokeWidth=2;rounded=0;exitX=0.855;exitY=0.16;exitDx=0;exitDy=0;exitPerimeter=0;entryX=0.044;entryY=1;entryDx=0;entryDy=0;entryPerimeter=0;" parent="1" source="tvakT9BRgmzE_acjiOMg-10" target="tvakT9BRgmzE_acjiOMg-17" edge="1">
          <mxGeometry width="50" height="50" relative="1" as="geometry">
            <mxPoint x="470" y="340" as="sourcePoint" />
            <mxPoint x="520" y="290" as="targetPoint" />
          </mxGeometry>
        </mxCell>
        <mxCell id="tvakT9BRgmzE_acjiOMg-25" value="Command" style="rounded=1;whiteSpace=wrap;html=1;" parent="1" vertex="1">
          <mxGeometry x="274" y="536" width="120" height="60" as="geometry" />
        </mxCell>
        <mxCell id="tvakT9BRgmzE_acjiOMg-26" value="Command" style="rounded=1;whiteSpace=wrap;html=1;" parent="1" vertex="1">
          <mxGeometry x="274" y="616" width="120" height="60" as="geometry" />
        </mxCell>
        <mxCell id="tvakT9BRgmzE_acjiOMg-39" style="edgeStyle=orthogonalEdgeStyle;rounded=0;orthogonalLoop=1;jettySize=auto;html=1;entryX=0.5;entryY=1;entryDx=0;entryDy=0;" parent="1" source="tvakT9BRgmzE_acjiOMg-27" target="tvakT9BRgmzE_acjiOMg-11" edge="1">
          <mxGeometry relative="1" as="geometry">
            <Array as="points">
              <mxPoint x="340" y="540" />
              <mxPoint x="340" y="540" />
            </Array>
          </mxGeometry>
        </mxCell>
        <mxCell id="tvakT9BRgmzE_acjiOMg-40" value="SUBSTITUTE" style="edgeLabel;html=1;align=center;verticalAlign=middle;resizable=0;points=[];" parent="tvakT9BRgmzE_acjiOMg-39" vertex="1" connectable="0">
          <mxGeometry x="-0.2105" relative="1" as="geometry">
            <mxPoint as="offset" />
          </mxGeometry>
        </mxCell>
        <mxCell id="tvakT9BRgmzE_acjiOMg-27" value="" style="rounded=0;whiteSpace=wrap;html=1;fillColor=none;" parent="1" vertex="1">
          <mxGeometry x="249" y="526" width="165" height="250" as="geometry" />
        </mxCell>
        <mxCell id="tvakT9BRgmzE_acjiOMg-28" value="Macro pointer" style="rounded=1;whiteSpace=wrap;html=1;" parent="1" vertex="1">
          <mxGeometry x="274" y="696" width="120" height="60" as="geometry" />
        </mxCell>
        <mxCell id="tvakT9BRgmzE_acjiOMg-35" value="&lt;div&gt;Program.bin&lt;/div&gt;" style="shape=note;whiteSpace=wrap;html=1;backgroundOutline=1;darkOpacity=0.05;" parent="1" vertex="1">
          <mxGeometry x="560" y="295" width="80" height="100" as="geometry" />
        </mxCell>
        <mxCell id="tvakT9BRgmzE_acjiOMg-44" value="&lt;div&gt;Address&lt;/div&gt;&lt;div&gt;&lt;br&gt;&lt;/div&gt;" style="text;html=1;strokeColor=none;fillColor=none;align=center;verticalAlign=middle;whiteSpace=wrap;rounded=0;" parent="1" vertex="1">
          <mxGeometry x="695" y="180" width="60" height="30" as="geometry" />
        </mxCell>
        <mxCell id="tvakT9BRgmzE_acjiOMg-46" value="Команда при конвертации вызывает трансляцию у всех аргументов" style="text;html=1;strokeColor=none;fillColor=none;align=center;verticalAlign=middle;whiteSpace=wrap;rounded=0;" parent="1" vertex="1">
          <mxGeometry x="600" y="130" width="70" height="90" as="geometry" />
        </mxCell>
      </root>
    </mxGraphModel>
  </diagram>
  <diagram id="UstRsr-A55nUzYf4Rery" name="Executor">
    <mxGraphModel dx="1912" dy="1053" grid="1" gridSize="10" guides="1" tooltips="1" connect="1" arrows="1" fold="1" page="1" pageScale="1" pageWidth="827" pageHeight="1169" math="0" shadow="0">
      <root>
        <mxCell id="0" />
        <mxCell id="1" parent="0" />
        <mxCell id="bfsPjhMhlzun9vByb5k0-1" style="edgeStyle=orthogonalEdgeStyle;rounded=0;orthogonalLoop=1;jettySize=auto;html=1;entryX=0;entryY=0.5;entryDx=0;entryDy=0;" edge="1" parent="1" source="bfsPjhMhlzun9vByb5k0-7" target="bfsPjhMhlzun9vByb5k0-8">
          <mxGeometry relative="1" as="geometry">
            <Array as="points">
              <mxPoint x="190" y="360" />
              <mxPoint x="190" y="650" />
            </Array>
          </mxGeometry>
        </mxCell>
        <mxCell id="bfsPjhMhlzun9vByb5k0-2" value="WRITE" style="edgeLabel;html=1;align=center;verticalAlign=middle;resizable=0;points=[];" vertex="1" connectable="0" parent="bfsPjhMhlzun9vByb5k0-1">
          <mxGeometry x="-0.0205" y="2" relative="1" as="geometry">
            <mxPoint as="offset" />
          </mxGeometry>
        </mxCell>
        <mxCell id="bfsPjhMhlzun9vByb5k0-3" value="" style="edgeStyle=orthogonalEdgeStyle;rounded=0;orthogonalLoop=1;jettySize=auto;html=1;" edge="1" parent="1" source="bfsPjhMhlzun9vByb5k0-7" target="bfsPjhMhlzun9vByb5k0-22">
          <mxGeometry relative="1" as="geometry" />
        </mxCell>
        <mxCell id="bfsPjhMhlzun9vByb5k0-4" value="UPDATE" style="edgeLabel;html=1;align=center;verticalAlign=middle;resizable=0;points=[];" vertex="1" connectable="0" parent="bfsPjhMhlzun9vByb5k0-3">
          <mxGeometry y="-1" relative="1" as="geometry">
            <mxPoint as="offset" />
          </mxGeometry>
        </mxCell>
        <mxCell id="bfsPjhMhlzun9vByb5k0-5" style="edgeStyle=orthogonalEdgeStyle;rounded=0;orthogonalLoop=1;jettySize=auto;html=1;exitX=1;exitY=0.75;exitDx=0;exitDy=0;entryX=0;entryY=0.75;entryDx=0;entryDy=0;" edge="1" parent="1" source="bfsPjhMhlzun9vByb5k0-7" target="bfsPjhMhlzun9vByb5k0-28">
          <mxGeometry relative="1" as="geometry">
            <Array as="points">
              <mxPoint x="340" y="373" />
              <mxPoint x="340" y="370" />
            </Array>
          </mxGeometry>
        </mxCell>
        <mxCell id="bfsPjhMhlzun9vByb5k0-6" value="WRITE" style="edgeLabel;html=1;align=center;verticalAlign=middle;resizable=0;points=[];" vertex="1" connectable="0" parent="bfsPjhMhlzun9vByb5k0-5">
          <mxGeometry x="0.1014" y="-2" relative="1" as="geometry">
            <mxPoint as="offset" />
          </mxGeometry>
        </mxCell>
        <mxCell id="bfsPjhMhlzun9vByb5k0-7" value="&lt;div&gt;Executor&lt;/div&gt;" style="rounded=1;whiteSpace=wrap;html=1;" vertex="1" parent="1">
          <mxGeometry x="240" y="320" width="120" height="70" as="geometry" />
        </mxCell>
        <mxCell id="bfsPjhMhlzun9vByb5k0-8" value="Memory" style="rounded=1;whiteSpace=wrap;html=1;" vertex="1" parent="1">
          <mxGeometry x="240" y="620" width="120" height="60" as="geometry" />
        </mxCell>
        <mxCell id="bfsPjhMhlzun9vByb5k0-9" value="" style="edgeStyle=orthogonalEdgeStyle;rounded=0;orthogonalLoop=1;jettySize=auto;html=1;exitX=0.5;exitY=0;exitDx=0;exitDy=0;entryX=0.5;entryY=1;entryDx=0;entryDy=0;" edge="1" parent="1" source="bfsPjhMhlzun9vByb5k0-8" target="bfsPjhMhlzun9vByb5k0-16">
          <mxGeometry relative="1" as="geometry">
            <mxPoint x="300" y="430" as="sourcePoint" />
            <mxPoint x="300" y="550" as="targetPoint" />
            <Array as="points" />
          </mxGeometry>
        </mxCell>
        <mxCell id="bfsPjhMhlzun9vByb5k0-10" value="&lt;div&gt;READ &amp;amp; CONVERT&lt;/div&gt;" style="edgeLabel;html=1;align=center;verticalAlign=middle;resizable=0;points=[];" vertex="1" connectable="0" parent="bfsPjhMhlzun9vByb5k0-9">
          <mxGeometry x="-0.1556" y="-5" relative="1" as="geometry">
            <mxPoint x="-5" as="offset" />
          </mxGeometry>
        </mxCell>
        <mxCell id="bfsPjhMhlzun9vByb5k0-11" style="edgeStyle=orthogonalEdgeStyle;rounded=0;orthogonalLoop=1;jettySize=auto;html=1;entryX=1;entryY=0.5;entryDx=0;entryDy=0;" edge="1" parent="1" source="bfsPjhMhlzun9vByb5k0-13">
          <mxGeometry relative="1" as="geometry">
            <mxPoint x="360" y="650" as="targetPoint" />
          </mxGeometry>
        </mxCell>
        <mxCell id="bfsPjhMhlzun9vByb5k0-12" value="&lt;div&gt;LOAD&lt;/div&gt;" style="edgeLabel;html=1;align=center;verticalAlign=middle;resizable=0;points=[];" vertex="1" connectable="0" parent="bfsPjhMhlzun9vByb5k0-11">
          <mxGeometry x="-0.0615" y="-4" relative="1" as="geometry">
            <mxPoint x="-9" y="4" as="offset" />
          </mxGeometry>
        </mxCell>
        <mxCell id="bfsPjhMhlzun9vByb5k0-13" value="Program.bin" style="shape=note;whiteSpace=wrap;html=1;backgroundOutline=1;darkOpacity=0.05;" vertex="1" parent="1">
          <mxGeometry x="490" y="600" width="80" height="100" as="geometry" />
        </mxCell>
        <mxCell id="bfsPjhMhlzun9vByb5k0-14" value="" style="edgeStyle=orthogonalEdgeStyle;rounded=0;orthogonalLoop=1;jettySize=auto;html=1;" edge="1" parent="1" source="bfsPjhMhlzun9vByb5k0-16" target="bfsPjhMhlzun9vByb5k0-7">
          <mxGeometry relative="1" as="geometry" />
        </mxCell>
        <mxCell id="bfsPjhMhlzun9vByb5k0-15" value="&lt;div&gt;GET &amp;amp; EXECUTE&lt;/div&gt;" style="edgeLabel;html=1;align=center;verticalAlign=middle;resizable=0;points=[];" vertex="1" connectable="0" parent="bfsPjhMhlzun9vByb5k0-14">
          <mxGeometry x="0.125" y="-3" relative="1" as="geometry">
            <mxPoint as="offset" />
          </mxGeometry>
        </mxCell>
        <mxCell id="bfsPjhMhlzun9vByb5k0-16" value="&lt;div&gt;Command &lt;/div&gt;" style="rounded=1;whiteSpace=wrap;html=1;" vertex="1" parent="1">
          <mxGeometry x="240" y="470" width="120" height="60" as="geometry" />
        </mxCell>
        <mxCell id="bfsPjhMhlzun9vByb5k0-17" value="" style="edgeStyle=orthogonalEdgeStyle;rounded=0;orthogonalLoop=1;jettySize=auto;html=1;" edge="1" parent="1" source="bfsPjhMhlzun9vByb5k0-18" target="bfsPjhMhlzun9vByb5k0-16">
          <mxGeometry relative="1" as="geometry" />
        </mxCell>
        <mxCell id="bfsPjhMhlzun9vByb5k0-18" value="Argumnets" style="rounded=1;whiteSpace=wrap;html=1;" vertex="1" parent="1">
          <mxGeometry x="390" y="470" width="120" height="60" as="geometry" />
        </mxCell>
        <mxCell id="bfsPjhMhlzun9vByb5k0-19" value="" style="endArrow=classic;html=1;rounded=0;entryX=0.45;entryY=1.05;entryDx=0;entryDy=0;entryPerimeter=0;" edge="1" parent="1" target="bfsPjhMhlzun9vByb5k0-18">
          <mxGeometry width="50" height="50" relative="1" as="geometry">
            <mxPoint x="300" y="570" as="sourcePoint" />
            <mxPoint x="350" y="530" as="targetPoint" />
          </mxGeometry>
        </mxCell>
        <mxCell id="bfsPjhMhlzun9vByb5k0-20" style="edgeStyle=orthogonalEdgeStyle;rounded=0;orthogonalLoop=1;jettySize=auto;html=1;entryX=0;entryY=0.25;entryDx=0;entryDy=0;" edge="1" parent="1" source="bfsPjhMhlzun9vByb5k0-22" target="bfsPjhMhlzun9vByb5k0-7">
          <mxGeometry relative="1" as="geometry">
            <mxPoint x="190" y="340" as="targetPoint" />
            <Array as="points">
              <mxPoint x="190" y="250" />
              <mxPoint x="190" y="338" />
            </Array>
          </mxGeometry>
        </mxCell>
        <mxCell id="bfsPjhMhlzun9vByb5k0-21" value="GET STATE" style="edgeLabel;html=1;align=center;verticalAlign=middle;resizable=0;points=[];" vertex="1" connectable="0" parent="bfsPjhMhlzun9vByb5k0-20">
          <mxGeometry x="0.0453" y="-1" relative="1" as="geometry">
            <mxPoint as="offset" />
          </mxGeometry>
        </mxCell>
        <mxCell id="bfsPjhMhlzun9vByb5k0-22" value="State" style="rounded=1;whiteSpace=wrap;html=1;" vertex="1" parent="1">
          <mxGeometry x="240" y="220" width="120" height="60" as="geometry" />
        </mxCell>
        <mxCell id="bfsPjhMhlzun9vByb5k0-24" style="edgeStyle=orthogonalEdgeStyle;rounded=0;orthogonalLoop=1;jettySize=auto;html=1;entryX=1;entryY=0.5;entryDx=0;entryDy=0;" edge="1" parent="1" source="bfsPjhMhlzun9vByb5k0-28" target="bfsPjhMhlzun9vByb5k0-7">
          <mxGeometry relative="1" as="geometry" />
        </mxCell>
        <mxCell id="bfsPjhMhlzun9vByb5k0-25" value="&lt;div&gt;READ&lt;/div&gt;" style="edgeLabel;html=1;align=center;verticalAlign=middle;resizable=0;points=[];" vertex="1" connectable="0" parent="bfsPjhMhlzun9vByb5k0-24">
          <mxGeometry x="0.0609" y="-3" relative="1" as="geometry">
            <mxPoint as="offset" />
          </mxGeometry>
        </mxCell>
        <mxCell id="bfsPjhMhlzun9vByb5k0-26" style="edgeStyle=orthogonalEdgeStyle;rounded=0;orthogonalLoop=1;jettySize=auto;html=1;exitX=0;exitY=0.25;exitDx=0;exitDy=0;entryX=1;entryY=0.25;entryDx=0;entryDy=0;" edge="1" parent="1" source="bfsPjhMhlzun9vByb5k0-28" target="bfsPjhMhlzun9vByb5k0-7">
          <mxGeometry relative="1" as="geometry">
            <mxPoint x="370" y="340" as="targetPoint" />
            <Array as="points">
              <mxPoint x="550" y="340" />
              <mxPoint x="550" y="338" />
            </Array>
          </mxGeometry>
        </mxCell>
        <mxCell id="bfsPjhMhlzun9vByb5k0-27" value="&lt;div&gt;INTERRUPT&lt;/div&gt;" style="edgeLabel;html=1;align=center;verticalAlign=middle;resizable=0;points=[];" vertex="1" connectable="0" parent="bfsPjhMhlzun9vByb5k0-26">
          <mxGeometry x="0.4474" y="3" relative="1" as="geometry">
            <mxPoint as="offset" />
          </mxGeometry>
        </mxCell>
        <mxCell id="bfsPjhMhlzun9vByb5k0-28" value="Внеш. У." style="rounded=1;whiteSpace=wrap;html=1;" vertex="1" parent="1">
          <mxGeometry x="500" y="325" width="120" height="60" as="geometry" />
        </mxCell>
      </root>
    </mxGraphModel>
  </diagram>
</mxfile>
